{
    "asset" : {
        "generator" : "Khronos glTF Blender I/O v1.4.40",
        "version" : "2.0"
    },
    "scene" : 0,
    "scenes" : [
        {
            "extras" : {
                "glTF2ExportSettings" : {
                    "export_animations" : 0,
                    "export_cameras" : 1,
                    "export_colors" : 0,
                    "export_extras" : 1,
                    "export_format" : "GLTF_SEPARATE",
                    "export_morph" : 0,
                    "export_skins" : 0
                }
            },
            "name" : "Scene",
            "nodes" : [
                0,
                1,
                2,
                3,
                9,
                10,
                11,
                12
            ]
        }
    ],
    "nodes" : [
        {
            "extras" : {
                "dynamic" : 0
            },
            "mesh" : 0,
            "name" : "Cube",
            "scale" : [
                36.24282455444336,
                1,
                40.27396774291992
            ],
            "translation" : [
                0,
                1,
                0
            ]
        },
        {
            "extras" : {
                "dynamic" : 0
            },
            "mesh" : 1,
            "name" : "Cube.001",
            "scale" : [
                12.401924133300781,
                4.349756240844727,
                1
            ],
            "translation" : [
                0,
                5.231801986694336,
                9.712637901306152
            ]
        },
        {
            "extras" : {
                "dynamic" : 0
            },
            "mesh" : 2,
            "name" : "Cube.002",
            "scale" : [
                2.3931331634521484,
                3.3752524852752686,
                1
            ],
            "translation" : [
                0,
                4.937966823577881,
                -5.291244029998779
            ]
        },
        {
            "extras" : {
                "dynamic" : 0
            },
            "mesh" : 3,
            "name" : "Cube.003",
            "scale" : [
                1,
                3.1830637454986572,
                3.8252036571502686
            ],
            "translation" : [
                15.003111839294434,
                3.513197898864746,
                0
            ]
        },
        {
            "mesh" : 4,
            "name" : "ShootPoint",
            "rotation" : [
                0,
                0.6755902171134949,
                0,
                0.7372773885726929
            ],
            "scale" : [
                0.17517675459384918,
                0.17517675459384918,
                0.17517675459384918
            ],
            "translation" : [
                -34.69225311279297,
                0.4515574276447296,
                0.00482177734375
            ]
        },
        {
            "children" : [
                4
            ],
            "mesh" : 5,
            "name" : "Gun",
            "rotation" : [
                -0.5213338136672974,
                -0.4777144491672516,
                0.4777144193649292,
                0.5213338732719421
            ],
            "scale" : [
                0.016972757875919342,
                0.016972756013274193,
                0.016972757875919342
            ],
            "translation" : [
                0.41039061546325684,
                -0.3174319863319397,
                0.20877604186534882
            ]
        },
        {
            "camera" : 0,
            "name" : "Camera_Orientation",
            "rotation" : [
                -0.7071067690849304,
                0,
                0,
                0.7071067690849304
            ]
        },
        {
            "children" : [
                5,
                6
            ],
            "name" : "Camera",
            "rotation" : [
                0.7071068286895752,
                0,
                0,
                0.7071067094802856
            ],
            "scale" : [
                2,
                1.999999761581421,
                1.999999761581421
            ]
        },
        {
            "children" : [
                7
            ],
            "name" : "Head",
            "scale" : [
                0.5,
                0.25,
                0.5
            ],
            "translation" : [
                0,
                0.75,
                0
            ]
        },
        {
            "children" : [
                8
            ],
            "extras" : {
                "dynamic" : 1
            },
            "name" : "Player",
            "scale" : [
                1,
                2,
                1
            ],
            "translation" : [
                0,
                5,
                0
            ]
        },
        {
            "extras" : {
                "dynamic" : 0
            },
            "mesh" : 6,
            "name" : "Cube.004",
            "rotation" : [
                0.03893870860338211,
                0.21772415935993195,
                0.1716906726360321,
                0.9600011706352234
            ],
            "scale" : [
                12.73807144165039,
                5.492674827575684,
                4.826042652130127
            ],
            "translation" : [
                -5.5998215675354,
                0.7974075078964233,
                -15.438241004943848
            ]
        },
        {
            "extras" : {
                "dynamic" : 0
            },
            "mesh" : 7,
            "name" : "Bullet",
            "scale" : [
                0.09891318529844284,
                0.09891318529844284,
                0.09891318529844284
            ],
            "translation" : [
                0,
                -3.0537285804748535,
                0
            ]
        },
        {
            "extras" : {
                "dynamic" : 0
            },
            "mesh" : 8,
            "name" : "Cube.005",
            "rotation" : [
                -0.006715218536555767,
                0.16026422381401062,
                0.015890268608927727,
                0.9869233965873718
            ],
            "scale" : [
                12.150233268737793,
                5.4925103187561035,
                2.1058218479156494
            ],
            "translation" : [
                14.761678695678711,
                3.1006343364715576,
                -22.532846450805664
            ]
        }
    ],
    "cameras" : [
        {
            "name" : "Camera",
            "perspective" : {
                "aspectRatio" : 1.7777777777777777,
                "yfov" : 1.1283951805128494,
                "zfar" : 1000000,
                "znear" : 0.10000000149011612
            },
            "type" : "perspective"
        }
    ],
    "materials" : [
        {
            "doubleSided" : true,
            "extras" : {
                "dynamic" : 0
            },
            "name" : "Material",
            "pbrMetallicRoughness" : {
                "baseColorTexture" : {
                    "index" : 0,
                    "texCoord" : 0
                },
                "metallicFactor" : 0,
                "roughnessFactor" : 0.4000000059604645
            }
        },
        {
            "doubleSided" : true,
            "extras" : {
                "dynamic" : 0
            },
            "name" : "Material.001",
            "pbrMetallicRoughness" : {
                "baseColorTexture" : {
                    "index" : 1,
                    "texCoord" : 0
                },
                "metallicFactor" : 0,
                "roughnessFactor" : 0.4000000059604645
            }
        }
    ],
    "meshes" : [
        {
            "name" : "Cube",
            "primitives" : [
                {
                    "attributes" : {
                        "POSITION" : 0,
                        "NORMAL" : 1,
                        "TEXCOORD_0" : 2
                    },
                    "indices" : 3,
                    "material" : 0
                }
            ]
        },
        {
            "name" : "Cube.001",
            "primitives" : [
                {
                    "attributes" : {
                        "POSITION" : 4,
                        "NORMAL" : 5,
                        "TEXCOORD_0" : 6
                    },
                    "indices" : 7,
                    "material" : 0
                }
            ]
        },
        {
            "name" : "Cube.002",
            "primitives" : [
                {
                    "attributes" : {
                        "POSITION" : 8,
                        "NORMAL" : 9,
                        "TEXCOORD_0" : 10
                    },
                    "indices" : 7,
                    "material" : 0
                }
            ]
        },
        {
            "name" : "Cube.003",
            "primitives" : [
                {
                    "attributes" : {
                        "POSITION" : 11,
                        "NORMAL" : 12,
                        "TEXCOORD_0" : 13
                    },
                    "indices" : 7,
                    "material" : 0
                }
            ]
        },
        {
            "name" : "Cube.005",
            "primitives" : [
                {
                    "attributes" : {
                        "POSITION" : 14,
                        "NORMAL" : 15,
                        "TEXCOORD_0" : 16
                    },
                    "indices" : 7,
                    "material" : 0
                }
            ]
        },
        {
            "name" : "Cube.004",
            "primitives" : [
                {
                    "attributes" : {
                        "POSITION" : 17,
                        "NORMAL" : 18,
                        "TEXCOORD_0" : 19
                    },
                    "indices" : 20,
                    "material" : 0
                }
            ]
        },
        {
            "name" : "Cube.006",
            "primitives" : [
                {
                    "attributes" : {
                        "POSITION" : 21,
                        "NORMAL" : 22,
                        "TEXCOORD_0" : 23
                    },
                    "indices" : 7,
                    "material" : 0
                }
            ]
        },
        {
            "name" : "Cube.007",
            "primitives" : [
                {
                    "attributes" : {
                        "POSITION" : 24,
                        "NORMAL" : 25,
                        "TEXCOORD_0" : 26
                    },
                    "indices" : 7,
                    "material" : 0
                }
            ]
        },
        {
            "name" : "Cube.008",
            "primitives" : [
                {
                    "attributes" : {
                        "POSITION" : 27,
                        "NORMAL" : 28,
                        "TEXCOORD_0" : 29
                    },
                    "indices" : 7,
                    "material" : 1
                }
            ]
        }
    ],
    "textures" : [
        {
            "sampler" : 0,
            "source" : 0
        },
        {
            "sampler" : 0,
            "source" : 1
        }
    ],
    "images" : [
        {
            "mimeType" : "image/png",
            "name" : "mainTexture",
            "uri" : "mainTexture.png"
        },
        {
            "mimeType" : "image/png",
            "name" : "mainTexture.png",
            "uri" : "mainTexture_png.png"
        }
    ],
    "accessors" : [
        {
            "bufferView" : 0,
            "componentType" : 5126,
            "count" : 24,
            "max" : [
                1,
                1,
                1
            ],
            "min" : [
                -1,
                -1,
                -1
            ],
            "type" : "VEC3"
        },
        {
            "bufferView" : 1,
            "componentType" : 5126,
            "count" : 24,
            "type" : "VEC3"
        },
        {
            "bufferView" : 2,
            "componentType" : 5126,
            "count" : 24,
            "type" : "VEC2"
        },
        {
            "bufferView" : 3,
            "componentType" : 5123,
            "count" : 36,
            "type" : "SCALAR"
        },
        {
            "bufferView" : 4,
            "componentType" : 5126,
            "count" : 24,
            "max" : [
                1,
                1,
                1
            ],
            "min" : [
                -1,
                -1,
                -1
            ],
            "type" : "VEC3"
        },
        {
            "bufferView" : 5,
            "componentType" : 5126,
            "count" : 24,
            "type" : "VEC3"
        },
        {
            "bufferView" : 6,
            "componentType" : 5126,
            "count" : 24,
            "type" : "VEC2"
        },
        {
            "bufferView" : 7,
            "componentType" : 5123,
            "count" : 36,
            "type" : "SCALAR"
        },
        {
            "bufferView" : 8,
            "componentType" : 5126,
            "count" : 24,
            "max" : [
                1,
                1,
                1
            ],
            "min" : [
                -1,
                -1,
                -1
            ],
            "type" : "VEC3"
        },
        {
            "bufferView" : 9,
            "componentType" : 5126,
            "count" : 24,
            "type" : "VEC3"
        },
        {
            "bufferView" : 10,
            "componentType" : 5126,
            "count" : 24,
            "type" : "VEC2"
        },
        {
            "bufferView" : 11,
            "componentType" : 5126,
            "count" : 24,
            "max" : [
                1,
                1,
                1
            ],
            "min" : [
                -1,
                -1,
                -1
            ],
            "type" : "VEC3"
        },
        {
            "bufferView" : 12,
            "componentType" : 5126,
            "count" : 24,
            "type" : "VEC3"
        },
        {
            "bufferView" : 13,
            "componentType" : 5126,
            "count" : 24,
            "type" : "VEC2"
        },
        {
            "bufferView" : 14,
            "componentType" : 5126,
            "count" : 24,
            "max" : [
                1,
                1,
                1
            ],
            "min" : [
                -1,
                -1,
                -1
            ],
            "type" : "VEC3"
        },
        {
            "bufferView" : 15,
            "componentType" : 5126,
            "count" : 24,
            "type" : "VEC3"
        },
        {
            "bufferView" : 16,
            "componentType" : 5126,
            "count" : 24,
            "type" : "VEC2"
        },
        {
            "bufferView" : 17,
            "componentType" : 5126,
            "count" : 316,
            "max" : [
                1.2629950046539307,
                2.444256544113159,
                1.6125234365463257
            ],
            "min" : [
                -35.18730926513672,
                -7.6609578132629395,
                -1.612524390220642
            ],
            "type" : "VEC3"
        },
        {
            "bufferView" : 18,
            "componentType" : 5126,
            "count" : 316,
            "type" : "VEC3"
        },
        {
            "bufferView" : 19,
            "componentType" : 5126,
            "count" : 316,
            "type" : "VEC2"
        },
        {
            "bufferView" : 20,
            "componentType" : 5123,
            "count" : 468,
            "type" : "SCALAR"
        },
        {
            "bufferView" : 21,
            "componentType" : 5126,
            "count" : 24,
            "max" : [
                1,
                1,
                1
            ],
            "min" : [
                -1,
                -1,
                -1
            ],
            "type" : "VEC3"
        },
        {
            "bufferView" : 22,
            "componentType" : 5126,
            "count" : 24,
            "type" : "VEC3"
        },
        {
            "bufferView" : 23,
            "componentType" : 5126,
            "count" : 24,
            "type" : "VEC2"
        },
        {
            "bufferView" : 24,
            "componentType" : 5126,
            "count" : 24,
            "max" : [
                1,
                1,
                1
            ],
            "min" : [
                -1,
                -1,
                -1
            ],
            "type" : "VEC3"
        },
        {
            "bufferView" : 25,
            "componentType" : 5126,
            "count" : 24,
            "type" : "VEC3"
        },
        {
            "bufferView" : 26,
            "componentType" : 5126,
            "count" : 24,
            "type" : "VEC2"
        },
        {
            "bufferView" : 27,
            "componentType" : 5126,
            "count" : 24,
            "max" : [
                1,
                1,
                1
            ],
            "min" : [
                -1,
                -1,
                -1
            ],
            "type" : "VEC3"
        },
        {
            "bufferView" : 28,
            "componentType" : 5126,
            "count" : 24,
            "type" : "VEC3"
        },
        {
            "bufferView" : 29,
            "componentType" : 5126,
            "count" : 24,
            "type" : "VEC2"
        }
    ],
    "bufferViews" : [
        {
            "buffer" : 0,
            "byteLength" : 288,
            "byteOffset" : 0
        },
        {
            "buffer" : 0,
            "byteLength" : 288,
            "byteOffset" : 288
        },
        {
            "buffer" : 0,
            "byteLength" : 192,
            "byteOffset" : 576
        },
        {
            "buffer" : 0,
            "byteLength" : 72,
            "byteOffset" : 768
        },
        {
            "buffer" : 0,
            "byteLength" : 288,
            "byteOffset" : 840
        },
        {
            "buffer" : 0,
            "byteLength" : 288,
            "byteOffset" : 1128
        },
        {
            "buffer" : 0,
            "byteLength" : 192,
            "byteOffset" : 1416
        },
        {
            "buffer" : 0,
            "byteLength" : 72,
            "byteOffset" : 1608
        },
        {
            "buffer" : 0,
            "byteLength" : 288,
            "byteOffset" : 1680
        },
        {
            "buffer" : 0,
            "byteLength" : 288,
            "byteOffset" : 1968
        },
        {
            "buffer" : 0,
            "byteLength" : 192,
            "byteOffset" : 2256
        },
        {
            "buffer" : 0,
            "byteLength" : 288,
            "byteOffset" : 2448
        },
        {
            "buffer" : 0,
            "byteLength" : 288,
            "byteOffset" : 2736
        },
        {
            "buffer" : 0,
            "byteLength" : 192,
            "byteOffset" : 3024
        },
        {
            "buffer" : 0,
            "byteLength" : 288,
            "byteOffset" : 3216
        },
        {
            "buffer" : 0,
            "byteLength" : 288,
            "byteOffset" : 3504
        },
        {
            "buffer" : 0,
            "byteLength" : 192,
            "byteOffset" : 3792
        },
        {
            "buffer" : 0,
            "byteLength" : 3792,
            "byteOffset" : 3984
        },
        {
            "buffer" : 0,
            "byteLength" : 3792,
            "byteOffset" : 7776
        },
        {
            "buffer" : 0,
            "byteLength" : 2528,
            "byteOffset" : 11568
        },
        {
            "buffer" : 0,
            "byteLength" : 936,
            "byteOffset" : 14096
        },
        {
            "buffer" : 0,
            "byteLength" : 288,
            "byteOffset" : 15032
        },
        {
            "buffer" : 0,
            "byteLength" : 288,
            "byteOffset" : 15320
        },
        {
            "buffer" : 0,
            "byteLength" : 192,
            "byteOffset" : 15608
        },
        {
            "buffer" : 0,
            "byteLength" : 288,
            "byteOffset" : 15800
        },
        {
            "buffer" : 0,
            "byteLength" : 288,
            "byteOffset" : 16088
        },
        {
            "buffer" : 0,
            "byteLength" : 192,
            "byteOffset" : 16376
        },
        {
            "buffer" : 0,
            "byteLength" : 288,
            "byteOffset" : 16568
        },
        {
            "buffer" : 0,
            "byteLength" : 288,
            "byteOffset" : 16856
        },
        {
            "buffer" : 0,
            "byteLength" : 192,
            "byteOffset" : 17144
        }
    ],
    "samplers" : [
        {
            "magFilter" : 9729,
            "minFilter" : 9986
        }
    ],
    "buffers" : [
        {
            "byteLength" : 17336,
            "uri" : "main_scene.bin"
        }
    ]
}
